<?xml version="1.0" encoding="utf-8"?>
<!-- Generator: Adobe Illustrator 28.0.0, SVG Export Plug-In . SVG Version: 6.00 Build 0)  -->
<svg version="1.1" id="Calque_1" xmlns="http://www.w3.org/2000/svg" xmlns:xlink="http://www.w3.org/1999/xlink" x="0px" y="0px"
	 viewBox="0 0 116 38.73" style="enable-background:new 0 0 116 38.73;" xml:space="preserve">
<style type="text/css">
	.st0{fill:#009E79;}
	.st1{fill:#59BAA2;}
</style>
<g>
	<polygon class="st0" points="43.77,5.08 49.24,5.08 56.9,3.18 53.53,21.78 58.37,24.03 52.21,30.23 41.04,16.36 	"/>
	<polygon class="st1" points="57.9,3.47 69.79,11.09 71.89,23.39 62.08,24.56 54.7,21.1 	"/>
	<polygon class="st0" points="63.88,25.29 74.96,24.12 67.3,26.86 	"/>
	<polygon class="st1" points="67.64,27.93 72.28,26.27 72.87,31.45 69.89,35.55 67.64,35.55 66.03,33.74 64.86,31.89 65.69,30.91 
		67.1,31.74 66.28,31.79 67.45,32.99 68.75,32.08 67.42,28.02 	"/>
	<polygon class="st0" points="68.75,32.08 66.03,33.74 67.64,35.55 69.89,35.55 	"/>
	<polygon class="st0" points="67.1,31.74 64.86,31.89 65.69,30.91 	"/>
</g>
</svg>
